<svg xmlns="http://www.w3.org/2000/svg" viewBox="0 0 437.07 106.53"><defs><style>.cls-1{font-size:98px;font-family:MyriadPro-Regular, Myriad Pro;}.cls-1,.cls-3{fill:#231f20;}.cls-2{fill:#506db4;}.cls-4{fill:none;stroke:#506db4;stroke-miterlimit:10;stroke-width:0.25px;}</style></defs><g id="Layer_1" data-name="Layer 1"><text class="cls-1" transform="translate(0 82.03)"><tspan xml:space="preserve">OneB  cket</tspan></text><text x="-5.72" y="5.4"/></g><g id="Layer_2" data-name="Layer 2"><path class="cls-2" d="M235.3,33.47c3.12-1.24,4.89-.91,5.95-.34.6.33.72.6,1.37.8,1.74.54,2.76-.84,5-1.22s2.46.79,5,.69,3.31-1.28,5.42-1.83c1.76-.46,4.48-.5,8.46,1.79V70.43H234.3v-37h.06l.84,0Z" transform="translate(-5.72 5.4)"/><polygon class="cls-3" points="265.35 32.35 265.35 79.56 224.01 79.56 224.01 32.35 228.58 32.35 228.58 38.84 228.58 75.83 260.77 75.83 260.77 38.76 260.77 32.35 265.35 32.35"/><path class="cls-4" d="M235.3,33.47c3.12-1.24,4.89-.91,5.95-.34.6.33.72.6,1.37.8,1.74.54,2.76-.84,5-1.22s2.46.79,5,.69,3.31-1.28,5.42-1.83c1.76-.46,4.48-.5,8.46,1.79" transform="translate(-5.72 5.4)"/></g></svg>