<?xml version="1.0" encoding="utf-8"?>
<!-- Generator: Adobe Illustrator 24.1.3, SVG Export Plug-In . SVG Version: 6.00 Build 0)  -->
<svg version="1.1" xmlns="http://www.w3.org/2000/svg" xmlns:xlink="http://www.w3.org/1999/xlink" x="0px" y="0px"
	 viewBox="0 0 476.26 325.12" style="enable-background:new 0 0 476.26 325.12;" xml:space="preserve">
<style type="text/css">
	.st0{clip-path:url(#SVGID_2_);}
	.st1{fill:#FFFFFF;stroke:#000000;stroke-width:30;stroke-miterlimit:10;}
	.st2{font-family:'MyriadPro-Regular';}
	.st3{font-size:80px;}
	.st4{fill:none;}
</style>
<g id="Layer_1">
	<g>
		<defs>
			<rect id="SVGID_1_" y="12.57" width="508.6" height="312.55"/>
		</defs>
		<clipPath id="SVGID_2_">
			<use xlink:href="#SVGID_1_"  style="overflow:visible;"/>
		</clipPath>
		<g class="st0">
			<path class="st1" d="M396.64,201.35L450.22,6.84L236.61-176.22L23,6.84l53.58,194.51c36.18-31.4,94.38-51.78,160.03-51.78
				S360.45,169.95,396.64,201.35z"/>
			<path class="st1" d="M368.63,303.03l28.01-101.68c-36.18-31.4-94.38-51.78-160.03-51.78s-123.84,20.38-160.03,51.78l28.01,101.68
				H368.63z"/>
		</g>
	</g>
</g>
<g id="Layer_2">
	<text transform="matrix(1 0 0 1 88.3342 92.0339)" class="st2 st3">ojbucket</text>
	<rect x="228.98" y="37.12" class="st4" width="50.64" height="3.05"/>
	<polygon class="st4" points="243.01,42.61 265.59,42.61 265.59,42.61 243.01,42.61 	"/>
</g>
</svg>
